# xmcd
#
# Track frame offsets:
#	150
#	17430
#	38023
#	57805
#	83125
#	103747
#	127886
#	149874
#	169305
#	192844
#	212606
#	232103
#	250270
#	277040
#
# Disc length: 4032 seconds
#
# Revision: 1
# Processed by: cddbd v1.5.1PL0 Copyright (c) Steve Scherf et al.
# Submitted via: audiograbber 1.83.01
#
DISCID=c70fbe0e
DTITLE=Luther Vandross - Luther Vandross
DYEAR=2001
DGENRE=
TTITLE0=Take you out
TTITLE1=Grown thangs
TTITLE2=Bring your heart to mine
TTITLE3=Can heaven wait
TTITLE4=Say it now
TTITLE5=Hearts get broken all the time
TTITLE6=I'd rather
TTITLE7=How do I tell her
TTITLE8=Any day now
TTITLE9=If I was the one
TTITLE10=Let's make tonight the night
TTITLE11=Like I'm invisible 
TTITLE12=Are you there
TTITLE13=Love forgot
EXTD=
EXTT0=
EXTT1=
EXTT2=
EXTT3=
EXTT4=
EXTT5=
EXTT6=
EXTT7=
EXTT8=
EXTT9=
EXTT10=
EXTT11=
EXTT12=
EXTT13=
PLAYORDER=
